<mxfile host="app.diagrams.net" agent="Mozilla/5.0 (Windows NT 10.0; Win64; x64) AppleWebKit/537.36 (KHTML, like Gecko) Chrome/128.0.0.0 Safari/537.36" version="24.7.17">
  <diagram name="Page-1" id="pNhwZBZ25glF3s8EqitQ">
    <mxGraphModel dx="819" dy="441" grid="1" gridSize="10" guides="1" tooltips="1" connect="1" arrows="1" fold="1" page="1" pageScale="1" pageWidth="850" pageHeight="1100" math="0" shadow="0">
      <root>
        <mxCell id="0" />
        <mxCell id="1" parent="0" />
        <mxCell id="2IhRTYt5F3qfYPw63JYM-4" value="" style="endArrow=none;html=1;rounded=0;" edge="1" parent="1">
          <mxGeometry width="50" height="50" relative="1" as="geometry">
            <mxPoint x="240" y="360" as="sourcePoint" />
            <mxPoint x="320" y="280" as="targetPoint" />
          </mxGeometry>
        </mxCell>
        <mxCell id="2IhRTYt5F3qfYPw63JYM-5" value="" style="endArrow=none;html=1;rounded=0;" edge="1" parent="1" source="2IhRTYt5F3qfYPw63JYM-22">
          <mxGeometry width="50" height="50" relative="1" as="geometry">
            <mxPoint x="320" y="440" as="sourcePoint" />
            <mxPoint x="240" y="360" as="targetPoint" />
          </mxGeometry>
        </mxCell>
        <mxCell id="2IhRTYt5F3qfYPw63JYM-6" value="" style="endArrow=none;html=1;rounded=0;" edge="1" parent="1">
          <mxGeometry width="50" height="50" relative="1" as="geometry">
            <mxPoint x="320" y="440" as="sourcePoint" />
            <mxPoint x="320" y="440" as="targetPoint" />
          </mxGeometry>
        </mxCell>
        <mxCell id="2IhRTYt5F3qfYPw63JYM-8" value="" style="endArrow=none;html=1;rounded=0;" edge="1" parent="1" source="2IhRTYt5F3qfYPw63JYM-14">
          <mxGeometry width="50" height="50" relative="1" as="geometry">
            <mxPoint x="520" y="360" as="sourcePoint" />
            <mxPoint x="440" y="280" as="targetPoint" />
          </mxGeometry>
        </mxCell>
        <mxCell id="2IhRTYt5F3qfYPw63JYM-9" value="" style="endArrow=none;html=1;rounded=0;" edge="1" parent="1">
          <mxGeometry width="50" height="50" relative="1" as="geometry">
            <mxPoint x="440" y="440" as="sourcePoint" />
            <mxPoint x="520" y="360" as="targetPoint" />
          </mxGeometry>
        </mxCell>
        <mxCell id="2IhRTYt5F3qfYPw63JYM-11" value="1" style="ellipse;whiteSpace=wrap;html=1;aspect=fixed;" vertex="1" parent="1">
          <mxGeometry x="310" y="270" width="20" height="20" as="geometry" />
        </mxCell>
        <mxCell id="2IhRTYt5F3qfYPw63JYM-15" value="" style="endArrow=none;html=1;rounded=0;" edge="1" parent="1" source="2IhRTYt5F3qfYPw63JYM-16" target="2IhRTYt5F3qfYPw63JYM-14">
          <mxGeometry width="50" height="50" relative="1" as="geometry">
            <mxPoint x="520" y="360" as="sourcePoint" />
            <mxPoint x="440" y="280" as="targetPoint" />
          </mxGeometry>
        </mxCell>
        <mxCell id="2IhRTYt5F3qfYPw63JYM-14" value="2" style="ellipse;whiteSpace=wrap;html=1;aspect=fixed;" vertex="1" parent="1">
          <mxGeometry x="430" y="270" width="20" height="20" as="geometry" />
        </mxCell>
        <mxCell id="2IhRTYt5F3qfYPw63JYM-18" value="" style="endArrow=none;html=1;rounded=0;" edge="1" parent="1" target="2IhRTYt5F3qfYPw63JYM-16">
          <mxGeometry width="50" height="50" relative="1" as="geometry">
            <mxPoint x="520" y="360" as="sourcePoint" />
            <mxPoint x="447" y="287" as="targetPoint" />
          </mxGeometry>
        </mxCell>
        <mxCell id="2IhRTYt5F3qfYPw63JYM-16" value="3" style="ellipse;whiteSpace=wrap;html=1;aspect=fixed;" vertex="1" parent="1">
          <mxGeometry x="510" y="350" width="20" height="20" as="geometry" />
        </mxCell>
        <mxCell id="2IhRTYt5F3qfYPw63JYM-23" value="" style="endArrow=none;html=1;rounded=0;" edge="1" parent="1" target="2IhRTYt5F3qfYPw63JYM-22">
          <mxGeometry width="50" height="50" relative="1" as="geometry">
            <mxPoint x="320" y="440" as="sourcePoint" />
            <mxPoint x="240" y="360" as="targetPoint" />
          </mxGeometry>
        </mxCell>
        <mxCell id="2IhRTYt5F3qfYPw63JYM-22" value="6" style="ellipse;whiteSpace=wrap;html=1;aspect=fixed;" vertex="1" parent="1">
          <mxGeometry x="230" y="350" width="20" height="20" as="geometry" />
        </mxCell>
        <mxCell id="2IhRTYt5F3qfYPw63JYM-24" value="&lt;div&gt;5&lt;/div&gt;" style="ellipse;whiteSpace=wrap;html=1;aspect=fixed;" vertex="1" parent="1">
          <mxGeometry x="310" y="430" width="20" height="20" as="geometry" />
        </mxCell>
        <mxCell id="2IhRTYt5F3qfYPw63JYM-25" value="4" style="ellipse;whiteSpace=wrap;html=1;aspect=fixed;" vertex="1" parent="1">
          <mxGeometry x="430" y="430" width="20" height="20" as="geometry" />
        </mxCell>
        <mxCell id="2IhRTYt5F3qfYPw63JYM-28" value="" style="endArrow=none;html=1;rounded=0;entryX=1;entryY=0.5;entryDx=0;entryDy=0;exitX=0;exitY=0.5;exitDx=0;exitDy=0;" edge="1" parent="1" source="2IhRTYt5F3qfYPw63JYM-16" target="2IhRTYt5F3qfYPw63JYM-11">
          <mxGeometry width="50" height="50" relative="1" as="geometry">
            <mxPoint x="360" y="330" as="sourcePoint" />
            <mxPoint x="400" y="350" as="targetPoint" />
          </mxGeometry>
        </mxCell>
        <mxCell id="2IhRTYt5F3qfYPw63JYM-30" value="" style="endArrow=none;html=1;rounded=0;entryX=1;entryY=1;entryDx=0;entryDy=0;exitX=0;exitY=0;exitDx=0;exitDy=0;" edge="1" parent="1" source="2IhRTYt5F3qfYPw63JYM-25" target="2IhRTYt5F3qfYPw63JYM-11">
          <mxGeometry width="50" height="50" relative="1" as="geometry">
            <mxPoint x="350" y="400" as="sourcePoint" />
            <mxPoint x="400" y="350" as="targetPoint" />
          </mxGeometry>
        </mxCell>
        <mxCell id="2IhRTYt5F3qfYPw63JYM-31" value="" style="endArrow=none;html=1;rounded=0;entryX=0.5;entryY=1;entryDx=0;entryDy=0;exitX=0.5;exitY=0;exitDx=0;exitDy=0;" edge="1" parent="1" source="2IhRTYt5F3qfYPw63JYM-24" target="2IhRTYt5F3qfYPw63JYM-11">
          <mxGeometry width="50" height="50" relative="1" as="geometry">
            <mxPoint x="443" y="443" as="sourcePoint" />
            <mxPoint x="330" y="300" as="targetPoint" />
          </mxGeometry>
        </mxCell>
        <mxCell id="2IhRTYt5F3qfYPw63JYM-32" value="" style="endArrow=none;html=1;rounded=0;entryX=0.5;entryY=1;entryDx=0;entryDy=0;exitX=0.5;exitY=0;exitDx=0;exitDy=0;" edge="1" parent="1" source="2IhRTYt5F3qfYPw63JYM-25" target="2IhRTYt5F3qfYPw63JYM-14">
          <mxGeometry width="50" height="50" relative="1" as="geometry">
            <mxPoint x="520" y="370" as="sourcePoint" />
            <mxPoint x="337" y="297" as="targetPoint" />
          </mxGeometry>
        </mxCell>
        <mxCell id="2IhRTYt5F3qfYPw63JYM-33" value="" style="endArrow=none;html=1;rounded=0;entryX=0;entryY=1;entryDx=0;entryDy=0;exitX=1;exitY=0;exitDx=0;exitDy=0;" edge="1" parent="1" source="2IhRTYt5F3qfYPw63JYM-24" target="2IhRTYt5F3qfYPw63JYM-14">
          <mxGeometry width="50" height="50" relative="1" as="geometry">
            <mxPoint x="450" y="440" as="sourcePoint" />
            <mxPoint x="450" y="300" as="targetPoint" />
          </mxGeometry>
        </mxCell>
        <mxCell id="2IhRTYt5F3qfYPw63JYM-34" value="" style="endArrow=none;html=1;rounded=0;entryX=0;entryY=0.5;entryDx=0;entryDy=0;exitX=1;exitY=0.5;exitDx=0;exitDy=0;" edge="1" parent="1" source="2IhRTYt5F3qfYPw63JYM-22" target="2IhRTYt5F3qfYPw63JYM-14">
          <mxGeometry width="50" height="50" relative="1" as="geometry">
            <mxPoint x="324" y="430" as="sourcePoint" />
            <mxPoint x="430" y="284" as="targetPoint" />
          </mxGeometry>
        </mxCell>
        <mxCell id="2IhRTYt5F3qfYPw63JYM-35" value="" style="shape=image;verticalLabelPosition=bottom;labelBackgroundColor=default;verticalAlign=top;aspect=fixed;imageAspect=0;image=data:image/png,iVBORw0KGgoAAAANSUhEUgAAAZwAAABmCAYAAAD/PyfyAAAAAXNSR0IArs4c6QAAAARnQU1BAACxjwv8YQUAAAAJcEhZcwAAEnQAABJ0Ad5mH3gAABBHSURBVHhe7d3RSyRHHgfw393fcJI9UIgL4R5WSFYIgxJYyEMGDfHFuX3JwxGWJYpZdG+4PB15SN4OPEfjIkGWcA+5h5w+aFhljhAIHMpw6CZgHpaDYRcFN7v5H+aqqqt6qnq6f3bP9HRmur8f6GR7yhl7uqv7V1Xd1u83LYEy8OzZMxoZGdFrQT/QFze+pNHv1undV8Tqz49o+e0L+uCnD+kNWfzjF3TjH6P0/d/fpd/J9RC/HCzTrWcf0E+L6h1K8LWOnwn+HofcpgaVQsts8ufeJ/rnT/Th6/olJe77AQCK4bf6/wPgW/r47Rt044ZY3v43vfNdvAu1DCLyPbf+8i3R5vve+7d+0KVXeOVd+uCjDXpfvqfjfaM0Wt6gxo961ZDBz/y8WsKCjfBjgzbK4jP0KgBA0Q1mD2dQxOhZhfuFHv35Fl38KSQQAQAU1AD1cAbQ6x/SV699TLfi9pi0Xw4+o49f+wrBBgDAgoBzhTcWv6e//e9LevSzfuEqPz+iz759h7637iUBAMDADKkBAEDeoYcDAACZQMABAIBMIOAAAEAmEHAAACATCDgAAJCJTJ9SAwCA4sos4AAAQLFhSA0AADKBgAMAAJlAwAEAgEwg4AAAQCYQcAAAIBMIOAAAkAkEHAAAyAQCDgAAZGKgAs7Lbxbp+vXr3vL5qX7Vw5UBAEA3XtL+R/q6KpYHj/XLfTJ4PZz7O9RsNql5b1K/YOHKojx+oHfmA0KYSs/p5+1KGr8BcEoPzHsSv7cI3P0T++R/vk+L1vuuf7QvLiMaVxa42Fy/vkj7z3URWxY4/mJxttU/5/RiH2OujN3WXnS5XwthhOY2xTW12aDarH6pn+TUNoPixf5Ca3zjRK+5uLIo6j1Le60Xp5ut8fHNVrJ3Q5TgsTjZGG8t7L/Qa5yT1ub4QmvvUq+C5UVrb2m8tXmqV7veV8HPsXFlncfVxp5/8vyS55ledXHfgyvjtzW+tPZr3qW1v3m5vocz8t4WNTfnRAyH9JzS18tEtT+aXuYpHa8R1evHKbVGC+rx17RCNbp906wf0yrV6fC/SffqOZ0flGns93rVwZWJ0qd1Kr86ptdcXNnLizOiP4yGn2fPL+iMJmj0ml63cWVXbGtsqe1XSAMeGoBk7IuEGgLZprHdGpUPxAXC+4kr1Gll2gxvuMM0RWZftNX9yodjtLNepvrTeHu1fY+zQmfrn9KcdRHnyuxhrMqTGn36nhU2uDJrmKq0PEE7gWFuf8hteoUmdpfILuXK2G3tQq/7FdKFgAPdkWPx0+d0t7lFc7FboZO0JO/B6aWxTiL4FOzeWuAexuI3bktbXoxLT++qnnl4fyKc6s2r/dqgmXrJ+VyujK7N0ZY5HuVDKtn3Tbgy+1juElUC90gn7+my5g7RvHvfhCtjt7UH3e5XSBcCDiRzbVT0b1apIlqKjaZunV6eU312LPGJPPLmDJX1vwvj5pK+oHrLlu41jIxOEK1VaPvVhv9QDDeMFW2E5u5UI1rwXJm82N+lakRPlSujm7epNntGF6G91Um6LXoUZxdhgYMr47c1rvT2K6Sh8AHHdOHx5EpckzR1n6hcnlLDFGIP0v7DVWtdMk848b2X03+tUP3+lBe0iu7mFFVF+J15U+/F5/u0vWatK3oYi316Sx+P0AsqVybPhW1ajWg4cGXqPslB1L0Yec+vThOj9vcwuDJ+W2OLs191rzOt3hREy3fAMcMX86tiRbTKrzxZIY7Je95whzcsVKLDcsNvqfPcx1MrtJPsEfdcm6Sloxk6NPe3pg9p5mgr1j2M9n0PuZTo/E6758SV2fdo5GKGnFQpVxY4jvK+iN/blaXOI9PbNHbUpCV9054rY7e1a93vV0jfQGX8lBVOVeyQixBXBgAAvZCjEl6QNw2AfsA9HAAAyMTgBZy1itf1DfsLdK4MAAASMvdbS7RyoF/qo4EaUgMAgPzCkBoAAGQCAQcAADKBgAMAAJlAwAEAgEwMTcBx/igMT6kBAKTC/mPcfs+2MFw9nC4SsDmBKvYsA+ZRQWvBDAUOf78m2C/OsfAXM2N04K/X5VLAhoXzl/hoWKXErVtJprGKrufuNcK5UAeTzIllkKfOMpOp7tzXL/RRvofUxIEv1WeooSdKVDPeJjiJq7vtSRaRV6fNzLzbWE829WZ7JmC9HNWo7ORDKVPtyCov2KwS8uKmpvvR339HrGF+r17JwFAh8s9lOUN1vLQYXD1/+c0nakon9ZmiHtPyJ+5nztb8645c+vnX+8MkxwFHVLSHq1S9YwLFSzqu14nWjkV7B3qhWkQpBAM5eSet38bknQoS2/VFDwnYuHouG0/+PG/Xpmhmtk7nl94qRMtxwLEzBsoutZwnaIeqFDWNeqfV+eHoEg8lNWtvle46kzMWODlbz4ntIEwmCdieH9PhQZWm7F7MwQqV9LUDw/Ft+R5Sky71yWvNSnu1EZrbbHeHm7tVEXyQnTJNnb0bJGdT5Ph/4sR2ELw/GGwgmuGx9BOwicZsMHOpk/OoIfpXIvjgfpyS44AzRmOim7syr09e1XLkcqgzVE4NSI24qFY6ejeuwiVnSzGxXREF7w+axmV/E7DJkRPv/lB0Y3aEpsqFSzMYKccBRx9oK8FXWMIv0zLihsy85FMzNIUcGjGZJ3jCeijevbXyFfduipecLU5iO/20FYZo4utXAjY17HlVsJG8JHPVt4pTkzm5HlKTrR75pI/pZsdP+GUumN6innTDU2o+E6RL4kTyx6rjDhmo7JBhvRv30dUiJmfrPrEdROs9sV1YPVcNIvF/+z6v3xBwHouOE5SKY2hmi5YHHwnYAAD6Q97nkkOP/Wzk5P+hAQAAGAjDFXCQgA0AIFVmdovKmn6hj5CADQAAMoEhNQAAyAQCDgAAZAIBBwAAMoGAAwAAmRiagOPMlYSn1AAAUmGeUpMLErDZMkvA5h4EudhT33Bl7l8Zi8UOjlyZmirDKrO3lSsLzIoQnGWZ3dYeOJ+LBkBq/PqaaPoarg7w9cM5P8RiX3C4MrYuB2aNcKc44soC25pavXJ/Z9xzIPj98zqDeZYJ2Eg+Fj0MXuwvtMY3TvRaTKebrfGlvdYLvdrVZ0iBz3FwZa2T1ub4QmvvUq86uLIXrb2l8dbmqV51cGVXfEd2W+ML/o6TjfHWwn6vnwpyP8r9qvZvguMkf97Z//I46+PDlbUu91oLzu+RdXJT/Ffgypx/S7JOtuuy/B52/bS34aqy9OtV8HzhzjuXOg7W9uRdOvubl+N7OKK1lFICNjunRhBXxs5Ozc5cbefyCeLK+Jlw2W2NDYnC+qXbxHZyRuS6n3HSq/emDnBlaobqgxX6RPdcvElq9ezUXJmaiX2VKqYHoubHa9flsVfLtDpvei7e5JUTo16tiy57SRdPyla9EvvjrWrveWt6SMAGfaADz8BL3tqwWzLy37KVE791Y94zrha7NSdxZV5LwSvr7IlwZeo76rJgS4MrU61RXdbZMua3NTH1u/TnqH+L/XlqvQY9U8c6aU/UqgPBesWW6R6Aqh8d5xdXZtXlsG2VPSn1O0POt4gyt4Wtf3fS/RBgXzfMfj2xXuPY55xaEl1/hk8WPZwcBBzrpFCLufDp4KIuhqZiJwk4FnWCRFxQuTL1+8JOcokr875T+MHnyvR+ijpJ2W2NyQQc+7PsIAQ9Y49hGHUsdL3WwcWvH1yZroPeevACz5XpdX0+eoGnffy9C7VeV7+/Xc+5MvM7vfNYbPO+KO/xIm+uG2ob9WeZ15Kx90c+IeBYklcSfVLYF8KuL4zys6ICFVfmbXfUQeTK1MkY9X25MnViRH1Hflvj0RcF+4IotyfJBRJYqq4n2J8dFwrreHBlncdNHltdP7iyjvPIO9e8wGH/29M+d7myTuz5EZf8HoFA0e2FNYsL8q8pi++X43s46SVgC45RO7iywPi1iysLjLU7uLLgWHsAu61xxUkUJl5TTxuFJWCD7kUnYLPvdah7dRaujA7OyS9V9xUtXJlYu/Cf2JL3FfU/tbOL9hbK+4o2rsz3+AGVlifYrLCxpJWALex9kJwOPAOPawlxZNT2uujtLrVNfa4os1tdXmvOel9HSy+qLPD7TItQ48rMdpiloxUYUWaGSfxy5zvy29o9r6VqPrezVWTKu+lNFlfwOKsl7Hh2HEf3eLj7nSvr/J2x653uOZjFrQNdnj/2Z6ZWVwXnHAnp4Yf0giT3+4e8L2ey6OEgARsAAKi/rUMCNgAAyIXhCjhIwAYAkCozawgSsAEAQG5gSA0AADKBgAMAAJlAwAEAgEwg4AAAQCaGJuA4uSnwlBoAQCrs3FbB2Ra4sm4MVw8nwwRswOs+AVs7GVbHdEJOUi8mMZdccnosu9qvwWRoYkkr0V4+tOtPsoumm7gtXgK6kLoqF7++BhPQieVXbkBzCdjSTs6W7yE1OR9TfYYaMkiJpVE+pBJ6Rz2TQbxCOvjLyijWYp3IKnPpNo0d7VBVv9QmTsR5oh3zmfetfCtaddcrU8umyXOUH13vV2m25tdzuSyZ/C+FJy/wJTq/06DarH4pFhk4KnS23tD7tEEz9VI7kN9c8vd1synq89q2zjk0QnOb7eMgl8Z6OZCHqky1I+tnCjR7So4DjqgwD9NJwAa2HhKwXZujreYWzYVOHjpJS80lf2JVmXyLnlxc/Zm50cN+BYasV90EYDkhadWaPNSbDNieeNTHJlMMHtdiy3HAsTNjmlaObFnbs9xCYvbJZXosuzUq2zMLp+D0P8EZqIlW59vDELkbMup1vx6sUMkM0WDoOAVeVtNjv555s7vbM2/7w5/TKzSx224s2dTs7ffvBhpZdVqZ1u+9vqh7RsWQ7yE16dIM42CYIZnAWHPwIibHsKfP6a7ssUSku+6WGlp6UqNPrdalM0yxWxXBJ6cnajf71RneaVCNRPDB0HGPRJ37a43O/EbOMY2tl520IOb+hhxSI/FznY2gsN6N1+Myx6uxTiL4FCeNR44DjmyhiJbEvD55VcuR6/qCyz0x/HsmMtc9rVLl4Rg1zBDY5TnVo3LwJCSDjbrvxt2jUTlOcia1/arzQEHv1BCwOQeWaPRpVP6qSbotglFwuO3080pI78Y18uYMFelo5TjgpJiADSz9S8AmhyiuDDaCl2RuhqZy1XCIs191r5MdMvOGfqpv2bUcWPqJM+4BDdPrvh06SuLtcycY6YRtV927Cbsm5Vmuh9RG3ttST/qYYSH1BBDy6fRs8p73xI63X0t0WI6bQ8MM04mWn1jz7snooTF1gor/2/cixOI1BEwA85Y4QWkYdb1fnUd0K0S7GD5uM3WnRCsHRPVlb//GaWCaxqhcVC4uq845j6+HDNl7gSSsd+MOVRftmoQEbAAAoIJoVAI2riyJ/D80AAAAA2G4Ag4SsAEApMoMD4YlYOPKuoEEbAAAkAkMqQEAQCYQcAAAIBMIOAAAkAkEHAAAyAQCDgAAZAIBBwAAMoGAAwAAmUDAAQCATCDgAABAJhBwAAAgEwg4AACQCQQcAADIBAIOAABkAgEHAAAygYADAACZQMABAIBMIOAAAEAGiP4PmWvwNB8HITYAAAAASUVORK5CYII=;" vertex="1" parent="1">
          <mxGeometry x="18" y="530" width="412" height="102" as="geometry" />
        </mxCell>
        <mxCell id="2IhRTYt5F3qfYPw63JYM-57" value="1" style="ellipse;whiteSpace=wrap;html=1;aspect=fixed;" vertex="1" parent="1">
          <mxGeometry x="510" y="510" width="20" height="20" as="geometry" />
        </mxCell>
        <mxCell id="2IhRTYt5F3qfYPw63JYM-59" value="2" style="ellipse;whiteSpace=wrap;html=1;aspect=fixed;" vertex="1" parent="1">
          <mxGeometry x="630" y="510" width="20" height="20" as="geometry" />
        </mxCell>
        <mxCell id="2IhRTYt5F3qfYPw63JYM-61" value="3" style="ellipse;whiteSpace=wrap;html=1;aspect=fixed;" vertex="1" parent="1">
          <mxGeometry x="630" y="632" width="20" height="20" as="geometry" />
        </mxCell>
        <mxCell id="2IhRTYt5F3qfYPw63JYM-65" value="4" style="ellipse;whiteSpace=wrap;html=1;aspect=fixed;" vertex="1" parent="1">
          <mxGeometry x="510" y="632" width="20" height="20" as="geometry" />
        </mxCell>
        <mxCell id="2IhRTYt5F3qfYPw63JYM-72" value="" style="endArrow=none;html=1;rounded=0;entryX=0;entryY=0.5;entryDx=0;entryDy=0;" edge="1" parent="1" target="2IhRTYt5F3qfYPw63JYM-59">
          <mxGeometry width="50" height="50" relative="1" as="geometry">
            <mxPoint x="530" y="520" as="sourcePoint" />
            <mxPoint x="580" y="470" as="targetPoint" />
          </mxGeometry>
        </mxCell>
        <mxCell id="2IhRTYt5F3qfYPw63JYM-73" value="" style="endArrow=none;html=1;rounded=0;entryX=0;entryY=0;entryDx=0;entryDy=0;exitX=1;exitY=1;exitDx=0;exitDy=0;" edge="1" parent="1" source="2IhRTYt5F3qfYPw63JYM-57" target="2IhRTYt5F3qfYPw63JYM-61">
          <mxGeometry width="50" height="50" relative="1" as="geometry">
            <mxPoint x="530" y="530" as="sourcePoint" />
            <mxPoint x="630" y="530" as="targetPoint" />
          </mxGeometry>
        </mxCell>
        <mxCell id="2IhRTYt5F3qfYPw63JYM-74" value="" style="endArrow=none;html=1;rounded=0;exitX=1;exitY=0;exitDx=0;exitDy=0;entryX=0;entryY=1;entryDx=0;entryDy=0;" edge="1" parent="1" source="2IhRTYt5F3qfYPw63JYM-65" target="2IhRTYt5F3qfYPw63JYM-59">
          <mxGeometry width="50" height="50" relative="1" as="geometry">
            <mxPoint x="550" y="549" as="sourcePoint" />
            <mxPoint x="630" y="530" as="targetPoint" />
          </mxGeometry>
        </mxCell>
        <mxCell id="2IhRTYt5F3qfYPw63JYM-76" value="" style="endArrow=none;html=1;rounded=0;entryX=0;entryY=0.5;entryDx=0;entryDy=0;exitX=1;exitY=0.5;exitDx=0;exitDy=0;" edge="1" parent="1" source="2IhRTYt5F3qfYPw63JYM-65" target="2IhRTYt5F3qfYPw63JYM-61">
          <mxGeometry width="50" height="50" relative="1" as="geometry">
            <mxPoint x="560" y="640" as="sourcePoint" />
            <mxPoint x="666" y="748" as="targetPoint" />
          </mxGeometry>
        </mxCell>
      </root>
    </mxGraphModel>
  </diagram>
</mxfile>
